<mxfile host="app.diagrams.net" modified="2023-05-18T11:28:48.945Z" agent="Mozilla/5.0 (Macintosh; Intel Mac OS X 10_15_7) AppleWebKit/537.36 (KHTML, like Gecko) Chrome/113.0.0.0 Safari/537.36" etag="iwFpFik4jdXUNqxcHurL" version="21.3.2" type="device">
  <diagram id="VYRKwv_npJckTApPpm85" name="Page-1">
    <mxGraphModel dx="816" dy="612" grid="0" gridSize="10" guides="1" tooltips="1" connect="1" arrows="1" fold="1" page="0" pageScale="1" pageWidth="1169" pageHeight="827" math="0" shadow="0">
      <root>
        <mxCell id="0" />
        <mxCell id="1" parent="0" />
        <mxCell id="Wx36gxwhS9fRDyJ-qwwK-4" value="" style="rounded=1;whiteSpace=wrap;html=1;fillColor=none;" parent="1" vertex="1">
          <mxGeometry x="72" y="-100" width="963" height="994" as="geometry" />
        </mxCell>
        <mxCell id="Wx36gxwhS9fRDyJ-qwwK-5" value="" style="rounded=1;whiteSpace=wrap;html=1;fillColor=#ffe6cc;strokeColor=#d79b00;" parent="1" vertex="1">
          <mxGeometry x="162" y="-24" width="330" height="845" as="geometry" />
        </mxCell>
        <mxCell id="Wx36gxwhS9fRDyJ-qwwK-6" value="" style="rounded=1;whiteSpace=wrap;html=1;fillColor=#ffe6cc;strokeColor=#d79b00;" parent="1" vertex="1">
          <mxGeometry x="628" y="-23.5" width="330" height="844.5" as="geometry" />
        </mxCell>
        <mxCell id="Wx36gxwhS9fRDyJ-qwwK-7" value="" style="outlineConnect=0;dashed=0;verticalLabelPosition=bottom;verticalAlign=top;align=center;html=1;shape=mxgraph.aws3.virtual_private_cloud;fillColor=#F58534;gradientColor=none;" parent="1" vertex="1">
          <mxGeometry x="170" y="-153" width="152" height="82" as="geometry" />
        </mxCell>
        <mxCell id="Wx36gxwhS9fRDyJ-qwwK-8" value="" style="shape=image;verticalLabelPosition=bottom;labelBackgroundColor=default;verticalAlign=top;aspect=fixed;imageAspect=0;image=https://cdn2.iconfinder.com/data/icons/amazon-aws-stencils/100/Compute__Networking_copy_Amazon_VPC_Internet_Gateway-512.png;" parent="1" vertex="1">
          <mxGeometry x="514" y="-153" width="105.43" height="105.43" as="geometry" />
        </mxCell>
        <mxCell id="Wx36gxwhS9fRDyJ-qwwK-14" value="&lt;font style=&quot;font-size: 16px&quot; color=&quot;#ff9933&quot;&gt;Availability Zone B&lt;/font&gt;" style="text;html=1;strokeColor=none;fillColor=none;align=center;verticalAlign=middle;whiteSpace=wrap;rounded=0;dashed=1;" parent="1" vertex="1">
          <mxGeometry x="219.75" y="779" width="220" height="30" as="geometry" />
        </mxCell>
        <mxCell id="Wx36gxwhS9fRDyJ-qwwK-15" value="&lt;font style=&quot;font-size: 16px&quot; color=&quot;#ff9933&quot;&gt;Availability Zone C&lt;/font&gt;" style="text;html=1;strokeColor=none;fillColor=none;align=center;verticalAlign=middle;whiteSpace=wrap;rounded=0;dashed=1;" parent="1" vertex="1">
          <mxGeometry x="687.25" y="779" width="220" height="30" as="geometry" />
        </mxCell>
        <mxCell id="Wx36gxwhS9fRDyJ-qwwK-17" value="&lt;font style=&quot;font-size: 16px&quot; color=&quot;#ff9933&quot;&gt;IGW&lt;/font&gt;" style="text;html=1;strokeColor=none;fillColor=none;align=center;verticalAlign=middle;whiteSpace=wrap;rounded=0;dashed=1;" parent="1" vertex="1">
          <mxGeometry x="456.71" y="-121" width="220" height="30" as="geometry" />
        </mxCell>
        <mxCell id="Wx36gxwhS9fRDyJ-qwwK-19" value="" style="rounded=1;whiteSpace=wrap;html=1;fillColor=#d5e8d4;dashed=1;strokeWidth=2;strokeColor=#82b366;" parent="1" vertex="1">
          <mxGeometry x="202" y="151.5" width="719" height="79" as="geometry" />
        </mxCell>
        <mxCell id="Wx36gxwhS9fRDyJ-qwwK-22" value="" style="shape=curlyBracket;whiteSpace=wrap;html=1;rounded=1;fontSize=16;strokeWidth=2;fillColor=#ffe6cc;strokeColor=#d79b00;" parent="1" vertex="1">
          <mxGeometry x="11" y="-21" width="20" height="291" as="geometry" />
        </mxCell>
        <mxCell id="Wx36gxwhS9fRDyJ-qwwK-23" value="" style="shape=curlyBracket;whiteSpace=wrap;html=1;rounded=1;fontSize=16;strokeWidth=2;fillColor=#ffe6cc;strokeColor=#d79b00;" parent="1" vertex="1">
          <mxGeometry x="11" y="277" width="20" height="543" as="geometry" />
        </mxCell>
        <mxCell id="Wx36gxwhS9fRDyJ-qwwK-24" value="Public&lt;br&gt;Subnets" style="text;html=1;strokeColor=none;fillColor=none;align=center;verticalAlign=middle;whiteSpace=wrap;rounded=0;fontSize=16;fontColor=#FF9933;" parent="1" vertex="1">
          <mxGeometry x="-58" y="47.5" width="60" height="30" as="geometry" />
        </mxCell>
        <mxCell id="Wx36gxwhS9fRDyJ-qwwK-25" value="Private&lt;br&gt;Subnets" style="text;html=1;strokeColor=none;fillColor=none;align=center;verticalAlign=middle;whiteSpace=wrap;rounded=0;fontSize=16;fontColor=#FF9933;" parent="1" vertex="1">
          <mxGeometry x="-58" y="471" width="60" height="30" as="geometry" />
        </mxCell>
        <mxCell id="Wx36gxwhS9fRDyJ-qwwK-34" value="" style="outlineConnect=0;dashed=0;verticalLabelPosition=bottom;verticalAlign=top;align=center;html=1;shape=mxgraph.aws3.application_load_balancer;fillColor=#F58534;gradientColor=none;shadow=0;sketch=0;fillStyle=auto;fontSize=16;fontColor=#FF9933;strokeWidth=2;" parent="1" vertex="1">
          <mxGeometry x="531.75" y="161" width="60" height="60" as="geometry" />
        </mxCell>
        <mxCell id="Wx36gxwhS9fRDyJ-qwwK-35" value="Application Load Balancer for External Adapters" style="text;html=1;strokeColor=none;fillColor=none;align=center;verticalAlign=middle;whiteSpace=wrap;rounded=0;fontSize=16;fontColor=#000000;" parent="1" vertex="1">
          <mxGeometry x="273.71" y="176" width="183" height="30" as="geometry" />
        </mxCell>
        <mxCell id="Wx36gxwhS9fRDyJ-qwwK-36" value="" style="rounded=1;whiteSpace=wrap;html=1;fillColor=#d5e8d4;dashed=1;strokeWidth=2;strokeColor=#82b366;" parent="1" vertex="1">
          <mxGeometry x="205" y="419" width="719" height="79" as="geometry" />
        </mxCell>
        <mxCell id="Wx36gxwhS9fRDyJ-qwwK-37" value="" style="rounded=1;whiteSpace=wrap;html=1;fillColor=#d5e8d4;dashed=1;strokeWidth=2;strokeColor=#82b366;" parent="1" vertex="1">
          <mxGeometry x="205" y="543" width="719" height="79" as="geometry" />
        </mxCell>
        <mxCell id="Wx36gxwhS9fRDyJ-qwwK-38" value="" style="rounded=1;whiteSpace=wrap;html=1;fillColor=#d0cee2;dashed=1;strokeWidth=2;strokeColor=#56517e;" parent="1" vertex="1">
          <mxGeometry x="205" y="667" width="719" height="79" as="geometry" />
        </mxCell>
        <mxCell id="Wx36gxwhS9fRDyJ-qwwK-39" value="" style="sketch=0;points=[[0,0,0],[0.25,0,0],[0.5,0,0],[0.75,0,0],[1,0,0],[0,1,0],[0.25,1,0],[0.5,1,0],[0.75,1,0],[1,1,0],[0,0.25,0],[0,0.5,0],[0,0.75,0],[1,0.25,0],[1,0.5,0],[1,0.75,0]];outlineConnect=0;fontColor=#232F3E;gradientColor=#F78E04;gradientDirection=north;fillColor=#D05C17;strokeColor=#ffffff;dashed=0;verticalLabelPosition=bottom;verticalAlign=top;align=center;html=1;fontSize=12;fontStyle=0;aspect=fixed;shape=mxgraph.aws4.resourceIcon;resIcon=mxgraph.aws4.ecs;shadow=0;fillStyle=auto;" parent="1" vertex="1">
          <mxGeometry x="466" y="429.75" width="57.5" height="57.5" as="geometry" />
        </mxCell>
        <mxCell id="Wx36gxwhS9fRDyJ-qwwK-40" value="" style="sketch=0;points=[[0,0,0],[0.25,0,0],[0.5,0,0],[0.75,0,0],[1,0,0],[0,1,0],[0.25,1,0],[0.5,1,0],[0.75,1,0],[1,1,0],[0,0.25,0],[0,0.5,0],[0,0.75,0],[1,0.25,0],[1,0.5,0],[1,0.75,0]];outlineConnect=0;fontColor=#232F3E;gradientColor=#F78E04;gradientDirection=north;fillColor=#D05C17;strokeColor=#ffffff;dashed=0;verticalLabelPosition=bottom;verticalAlign=top;align=center;html=1;fontSize=12;fontStyle=0;aspect=fixed;shape=mxgraph.aws4.resourceIcon;resIcon=mxgraph.aws4.ecs;shadow=0;fillStyle=auto;" parent="1" vertex="1">
          <mxGeometry x="535.75" y="429.75" width="57.5" height="57.5" as="geometry" />
        </mxCell>
        <mxCell id="Wx36gxwhS9fRDyJ-qwwK-41" value="" style="sketch=0;points=[[0,0,0],[0.25,0,0],[0.5,0,0],[0.75,0,0],[1,0,0],[0,1,0],[0.25,1,0],[0.5,1,0],[0.75,1,0],[1,1,0],[0,0.25,0],[0,0.5,0],[0,0.75,0],[1,0.25,0],[1,0.5,0],[1,0.75,0]];outlineConnect=0;fontColor=#232F3E;gradientColor=#F78E04;gradientDirection=north;fillColor=#D05C17;strokeColor=#ffffff;dashed=0;verticalLabelPosition=bottom;verticalAlign=top;align=center;html=1;fontSize=12;fontStyle=0;aspect=fixed;shape=mxgraph.aws4.resourceIcon;resIcon=mxgraph.aws4.ecs;shadow=0;fillStyle=auto;" parent="1" vertex="1">
          <mxGeometry x="606" y="429.75" width="57.5" height="57.5" as="geometry" />
        </mxCell>
        <mxCell id="Wx36gxwhS9fRDyJ-qwwK-42" value="ECS Fargate Tasks for External Adapters" style="text;html=1;strokeColor=none;fillColor=none;align=center;verticalAlign=middle;whiteSpace=wrap;rounded=0;fontSize=16;fontColor=#000000;" parent="1" vertex="1">
          <mxGeometry x="262" y="443.5" width="183" height="30" as="geometry" />
        </mxCell>
        <mxCell id="Wx36gxwhS9fRDyJ-qwwK-43" value="" style="sketch=0;points=[[0,0,0],[0.25,0,0],[0.5,0,0],[0.75,0,0],[1,0,0],[0,1,0],[0.25,1,0],[0.5,1,0],[0.75,1,0],[1,1,0],[0,0.25,0],[0,0.5,0],[0,0.75,0],[1,0.25,0],[1,0.5,0],[1,0.75,0]];outlineConnect=0;fontColor=#232F3E;gradientColor=#4D72F3;gradientDirection=north;fillColor=#3334B9;strokeColor=#ffffff;dashed=0;verticalLabelPosition=bottom;verticalAlign=top;align=center;html=1;fontSize=12;fontStyle=0;aspect=fixed;shape=mxgraph.aws4.resourceIcon;resIcon=mxgraph.aws4.memorydb_for_redis;shadow=0;fillStyle=auto;fillOpacity=40;" parent="1" vertex="1">
          <mxGeometry x="302.5" y="552.5" width="60" height="60" as="geometry" />
        </mxCell>
        <mxCell id="Wx36gxwhS9fRDyJ-qwwK-44" value="" style="sketch=0;points=[[0,0,0],[0.25,0,0],[0.5,0,0],[0.75,0,0],[1,0,0],[0,1,0],[0.25,1,0],[0.5,1,0],[0.75,1,0],[1,1,0],[0,0.25,0],[0,0.5,0],[0,0.75,0],[1,0.25,0],[1,0.5,0],[1,0.75,0]];outlineConnect=0;fontColor=#232F3E;gradientColor=#4D72F3;gradientDirection=north;fillColor=#3334B9;strokeColor=#ffffff;dashed=0;verticalLabelPosition=bottom;verticalAlign=top;align=center;html=1;fontSize=12;fontStyle=0;aspect=fixed;shape=mxgraph.aws4.resourceIcon;resIcon=mxgraph.aws4.memorydb_for_redis;shadow=0;fillStyle=auto;fillOpacity=100;" parent="1" vertex="1">
          <mxGeometry x="766.5" y="552.5" width="60" height="60" as="geometry" />
        </mxCell>
        <mxCell id="Wx36gxwhS9fRDyJ-qwwK-45" value="MemoryDB (Redis) for External Adapters" style="text;html=1;strokeColor=none;fillColor=none;align=center;verticalAlign=middle;whiteSpace=wrap;rounded=0;fontSize=16;fontColor=#000000;" parent="1" vertex="1">
          <mxGeometry x="473" y="567.5" width="183" height="30" as="geometry" />
        </mxCell>
        <mxCell id="Wx36gxwhS9fRDyJ-qwwK-46" value="" style="sketch=0;points=[[0,0,0],[0.25,0,0],[0.5,0,0],[0.75,0,0],[1,0,0],[0,1,0],[0.25,1,0],[0.5,1,0],[0.75,1,0],[1,1,0],[0,0.25,0],[0,0.5,0],[0,0.75,0],[1,0.25,0],[1,0.5,0],[1,0.75,0]];outlineConnect=0;fontColor=#232F3E;gradientColor=#4D72F3;gradientDirection=north;fillColor=#3334B9;strokeColor=#ffffff;dashed=0;verticalLabelPosition=bottom;verticalAlign=top;align=center;html=1;fontSize=12;fontStyle=0;aspect=fixed;shape=mxgraph.aws4.resourceIcon;resIcon=mxgraph.aws4.aurora;shadow=0;fillStyle=auto;" parent="1" vertex="1">
          <mxGeometry x="768" y="677" width="58.5" height="58.5" as="geometry" />
        </mxCell>
        <mxCell id="Wx36gxwhS9fRDyJ-qwwK-47" value="" style="sketch=0;points=[[0,0,0],[0.25,0,0],[0.5,0,0],[0.75,0,0],[1,0,0],[0,1,0],[0.25,1,0],[0.5,1,0],[0.75,1,0],[1,1,0],[0,0.25,0],[0,0.5,0],[0,0.75,0],[1,0.25,0],[1,0.5,0],[1,0.75,0]];outlineConnect=0;fontColor=#232F3E;gradientColor=#4D72F3;gradientDirection=north;fillColor=#3334B9;strokeColor=#ffffff;dashed=0;verticalLabelPosition=bottom;verticalAlign=top;align=center;html=1;fontSize=12;fontStyle=0;aspect=fixed;shape=mxgraph.aws4.resourceIcon;resIcon=mxgraph.aws4.aurora;shadow=0;fillStyle=auto;" parent="1" vertex="1">
          <mxGeometry x="300.5" y="677" width="58.5" height="58.5" as="geometry" />
        </mxCell>
        <mxCell id="Wx36gxwhS9fRDyJ-qwwK-48" value="Aurora PostgreSQL for Chainlink Node" style="text;html=1;strokeColor=none;fillColor=none;align=center;verticalAlign=middle;whiteSpace=wrap;rounded=0;fontSize=16;fontColor=#000000;" parent="1" vertex="1">
          <mxGeometry x="473" y="691.25" width="183" height="30" as="geometry" />
        </mxCell>
        <mxCell id="Wx36gxwhS9fRDyJ-qwwK-49" value="&lt;font style=&quot;font-size: 16px&quot;&gt;Main&lt;/font&gt;" style="text;html=1;strokeColor=none;fillColor=none;align=center;verticalAlign=middle;whiteSpace=wrap;rounded=0;dashed=1;fontColor=#000000;" parent="1" vertex="1">
          <mxGeometry x="822" y="691.25" width="84" height="30" as="geometry" />
        </mxCell>
        <mxCell id="Wx36gxwhS9fRDyJ-qwwK-50" value="&lt;font style=&quot;font-size: 16px&quot;&gt;Replica&lt;/font&gt;" style="text;html=1;strokeColor=none;fillColor=none;align=center;verticalAlign=middle;whiteSpace=wrap;rounded=0;dashed=1;fontColor=#000000;" parent="1" vertex="1">
          <mxGeometry x="213.5" y="691.25" width="84" height="30" as="geometry" />
        </mxCell>
        <mxCell id="Wx36gxwhS9fRDyJ-qwwK-51" value="" style="outlineConnect=0;dashed=0;verticalLabelPosition=bottom;verticalAlign=top;align=center;html=1;shape=mxgraph.aws3.cloudwatch;fillColor=#759C3E;gradientColor=none;shadow=0;sketch=0;fillStyle=auto;fontSize=16;fontColor=#000000;strokeWidth=2;" parent="1" vertex="1">
          <mxGeometry x="1079" y="324.5" width="82.5" height="93" as="geometry" />
        </mxCell>
        <mxCell id="Wx36gxwhS9fRDyJ-qwwK-52" value="" style="outlineConnect=0;dashed=0;verticalLabelPosition=bottom;verticalAlign=top;align=center;html=1;shape=mxgraph.aws3.sns;fillColor=#D9A741;gradientColor=none;shadow=0;sketch=0;fillStyle=auto;fontSize=16;fontColor=#000000;strokeWidth=2;" parent="1" vertex="1">
          <mxGeometry x="1082" y="450.5" width="76.5" height="76.5" as="geometry" />
        </mxCell>
        <mxCell id="Wx36gxwhS9fRDyJ-qwwK-54" value="" style="outlineConnect=0;dashed=0;verticalLabelPosition=bottom;verticalAlign=top;align=center;html=1;shape=mxgraph.aws3.vpc_nat_gateway;fillColor=#F58534;gradientColor=none;shadow=0;sketch=0;fillStyle=auto;fontSize=16;fontColor=#000000;strokeWidth=2;" parent="1" vertex="1">
          <mxGeometry x="931" y="118" width="55" height="53" as="geometry" />
        </mxCell>
        <mxCell id="Wx36gxwhS9fRDyJ-qwwK-56" value="&lt;font style=&quot;font-size: 16px&quot; color=&quot;#ff9933&quot;&gt;NAT&lt;/font&gt;" style="text;html=1;strokeColor=none;fillColor=none;align=center;verticalAlign=middle;whiteSpace=wrap;rounded=0;dashed=1;" parent="1" vertex="1">
          <mxGeometry x="942" y="91" width="93" height="30" as="geometry" />
        </mxCell>
        <mxCell id="Wx36gxwhS9fRDyJ-qwwK-67" value="" style="sketch=0;points=[[0,0,0],[0.25,0,0],[0.5,0,0],[0.75,0,0],[1,0,0],[0,1,0],[0.25,1,0],[0.5,1,0],[0.75,1,0],[1,1,0],[0,0.25,0],[0,0.5,0],[0,0.75,0],[1,0.25,0],[1,0.5,0],[1,0.75,0]];outlineConnect=0;fontColor=#232F3E;gradientColor=#F54749;gradientDirection=north;fillColor=#C7131F;strokeColor=#ffffff;dashed=0;verticalLabelPosition=bottom;verticalAlign=top;align=center;html=1;fontSize=12;fontStyle=0;aspect=fixed;shape=mxgraph.aws4.resourceIcon;resIcon=mxgraph.aws4.secrets_manager;shadow=0;fillStyle=auto;" parent="1" vertex="1">
          <mxGeometry x="1080.5" y="213.5" width="78" height="78" as="geometry" />
        </mxCell>
        <mxCell id="4o5GDBIhkHlCJCK-wR71-1" style="edgeStyle=orthogonalEdgeStyle;rounded=0;orthogonalLoop=1;jettySize=auto;html=1;exitX=0.5;exitY=1;exitDx=0;exitDy=0;" parent="1" source="Wx36gxwhS9fRDyJ-qwwK-4" target="Wx36gxwhS9fRDyJ-qwwK-4" edge="1">
          <mxGeometry relative="1" as="geometry" />
        </mxCell>
        <mxCell id="4o5GDBIhkHlCJCK-wR71-2" style="edgeStyle=orthogonalEdgeStyle;rounded=0;orthogonalLoop=1;jettySize=auto;html=1;exitX=0.5;exitY=1;exitDx=0;exitDy=0;" parent="1" source="Wx36gxwhS9fRDyJ-qwwK-4" target="Wx36gxwhS9fRDyJ-qwwK-4" edge="1">
          <mxGeometry relative="1" as="geometry" />
        </mxCell>
        <mxCell id="4o5GDBIhkHlCJCK-wR71-4" style="edgeStyle=orthogonalEdgeStyle;rounded=0;orthogonalLoop=1;jettySize=auto;html=1;exitX=0.5;exitY=1;exitDx=0;exitDy=0;" parent="1" source="Wx36gxwhS9fRDyJ-qwwK-4" target="Wx36gxwhS9fRDyJ-qwwK-4" edge="1">
          <mxGeometry relative="1" as="geometry" />
        </mxCell>
        <mxCell id="4o5GDBIhkHlCJCK-wR71-5" value="" style="endArrow=none;html=1;rounded=0;fontSize=16;fontColor=#FF9933;strokeColor=default;" parent="1" edge="1">
          <mxGeometry width="50" height="50" relative="1" as="geometry">
            <mxPoint x="162" y="272.5" as="sourcePoint" />
            <mxPoint x="492" y="272.52" as="targetPoint" />
          </mxGeometry>
        </mxCell>
        <mxCell id="4o5GDBIhkHlCJCK-wR71-7" value="" style="rounded=1;whiteSpace=wrap;html=1;fillColor=#dae8fc;dashed=1;strokeWidth=2;strokeColor=#6c8ebf;" parent="1" vertex="1">
          <mxGeometry x="205" y="301" width="719" height="79" as="geometry" />
        </mxCell>
        <mxCell id="4o5GDBIhkHlCJCK-wR71-9" value="" style="sketch=0;points=[[0,0,0],[0.25,0,0],[0.5,0,0],[0.75,0,0],[1,0,0],[0,1,0],[0.25,1,0],[0.5,1,0],[0.75,1,0],[1,1,0],[0,0.25,0],[0,0.5,0],[0,0.75,0],[1,0.25,0],[1,0.5,0],[1,0.75,0]];outlineConnect=0;fontColor=#232F3E;gradientColor=#F78E04;gradientDirection=north;fillColor=#D05C17;strokeColor=#ffffff;dashed=0;verticalLabelPosition=bottom;verticalAlign=top;align=center;html=1;fontSize=12;fontStyle=0;aspect=fixed;shape=mxgraph.aws4.resourceIcon;resIcon=mxgraph.aws4.ecs;shadow=0;fillStyle=auto;" parent="1" vertex="1">
          <mxGeometry x="535.75" y="311.75" width="57.5" height="57.5" as="geometry" />
        </mxCell>
        <mxCell id="4o5GDBIhkHlCJCK-wR71-11" value="ECS Fargate Task for Chainlink Node" style="text;html=1;strokeColor=none;fillColor=none;align=center;verticalAlign=middle;whiteSpace=wrap;rounded=0;fontSize=16;fontColor=#000000;" parent="1" vertex="1">
          <mxGeometry x="262" y="325.5" width="183" height="30" as="geometry" />
        </mxCell>
        <mxCell id="4o5GDBIhkHlCJCK-wR71-14" value="" style="rounded=1;whiteSpace=wrap;html=1;fillColor=#DAE8FC;dashed=1;strokeWidth=2;strokeColor=#6c8ebf;" parent="1" vertex="1">
          <mxGeometry x="205" y="38" width="719" height="79" as="geometry" />
        </mxCell>
        <mxCell id="4o5GDBIhkHlCJCK-wR71-16" value="Network Load Balancer for Chainlink Node" style="text;html=1;strokeColor=none;fillColor=none;align=center;verticalAlign=middle;whiteSpace=wrap;rounded=0;fontSize=16;fontColor=#000000;" parent="1" vertex="1">
          <mxGeometry x="273.71" y="60" width="183" height="30" as="geometry" />
        </mxCell>
        <mxCell id="4o5GDBIhkHlCJCK-wR71-17" value="" style="outlineConnect=0;dashed=0;verticalLabelPosition=bottom;verticalAlign=top;align=center;html=1;shape=mxgraph.aws3.classic_load_balancer;fillColor=#F58536;gradientColor=none;" parent="1" vertex="1">
          <mxGeometry x="531.25" y="44.75" width="60.5" height="60.5" as="geometry" />
        </mxCell>
        <mxCell id="FpJFFkUGRsBfN-ot8lRf-1" value="" style="outlineConnect=0;dashed=0;verticalLabelPosition=bottom;verticalAlign=top;align=center;html=1;shape=mxgraph.aws3.iam;fillColor=#759C3E;gradientColor=none;" parent="1" vertex="1">
          <mxGeometry x="1098.5" y="564.5" width="42" height="81" as="geometry" />
        </mxCell>
        <mxCell id="FpJFFkUGRsBfN-ot8lRf-2" value="" style="endArrow=none;html=1;rounded=0;fontSize=16;fontColor=#FF9933;strokeColor=default;" parent="1" edge="1">
          <mxGeometry width="50" height="50" relative="1" as="geometry">
            <mxPoint x="628" y="272.5199999999995" as="sourcePoint" />
            <mxPoint x="931" y="272.5" as="targetPoint" />
          </mxGeometry>
        </mxCell>
        <mxCell id="HFayTQaig8mojzbcNjup-1" value="" style="outlineConnect=0;dashed=0;verticalLabelPosition=bottom;verticalAlign=top;align=center;html=1;shape=mxgraph.aws3.route_53;fillColor=#F58536;gradientColor=none;" vertex="1" parent="1">
          <mxGeometry x="1079" y="90" width="82" height="90.5" as="geometry" />
        </mxCell>
      </root>
    </mxGraphModel>
  </diagram>
</mxfile>
